<?xml version="1.0" standalone="no"?>
<!DOCTYPE svg PUBLIC "-//W3C//DTD SVG 20010904//EN"
 "http://www.w3.org/TR/2001/REC-SVG-20010904/DTD/svg10.dtd">
<svg version="1.0" xmlns="http://www.w3.org/2000/svg"
 width="980.000000pt" height="444.000000pt" viewBox="0 0 980.000000 444.000000"
 preserveAspectRatio="xMidYMid meet">

<g transform="translate(0.000000,444.000000) scale(0.100000,-0.100000)"
fill="#000000" stroke="none">
<path d="M211 4319 c-12 -11 -26 -32 -32 -46 -15 -39 -11 -3353 4 -3380 12
-22 67 -69 67 -58 0 3 13 -3 29 -14 15 -11 31 -18 35 -14 3 3 6 1 6 -5 0 -7 6
-12 14 -12 8 0 140 -63 295 -140 154 -77 284 -140 290 -140 5 0 11 -5 13 -11
2 -5 10 -11 18 -13 8 -1 155 -71 326 -156 171 -85 331 -164 355 -174 24 -11
47 -23 50 -28 3 -5 15 -10 27 -13 12 -2 29 -8 38 -13 32 -18 -12 -38 779 353
319 158 630 311 690 341 61 30 119 61 130 70 20 15 20 28 23 1707 1 1195 -1
1700 -9 1718 -11 29 -46 49 -85 49 -61 0 -65 -11 -318 -770 -302 -904 -271
-822 -304 -809 -15 6 -29 13 -32 17 -13 18 -187 107 -256 132 -114 41 -140 49
-219 69 -123 30 -227 42 -381 42 -295 -1 -583 -83 -837 -239 -31 -19 -59 -33
-61 -31 -2 2 -74 216 -160 474 -291 876 -362 1078 -386 1097 -30 24 -81 23
-109 -3z m2979 -1990 l0 -1341 -517 -255 c-285 -140 -605 -297 -711 -349
l-193 -93 -57 28 c-31 16 -79 39 -107 52 -27 12 -53 27 -57 33 -4 6 -8 7 -8 3
0 -5 -13 1 -29 12 -16 12 -33 21 -37 21 -5 0 -135 62 -289 139 -154 76 -403
199 -552 272 l-273 134 1 1340 0 1340 190 -560 c117 -346 197 -567 209 -580
36 -35 87 -26 159 28 91 70 221 142 336 186 270 105 510 125 815 68 129 -25
354 -114 436 -174 17 -13 36 -23 42 -23 7 0 12 -4 12 -10 0 -5 5 -10 11 -10 6
0 29 -16 51 -35 76 -65 151 -67 182 -6 7 14 95 272 196 574 100 301 184 547
186 547 2 0 4 -603 4 -1341z"/>
<path d="M635 1648 c-27 -32 -27 -35 -22 -123 11 -161 61 -272 173 -382 41
-40 80 -73 88 -73 8 0 16 -5 18 -11 2 -5 10 -11 18 -13 8 -2 37 -13 63 -25
177 -82 444 -34 593 106 61 57 77 87 70 127 -8 43 -26 58 -106 91 -36 14 -78
32 -95 40 -16 7 -55 23 -85 35 -30 12 -72 31 -92 42 -21 10 -38 16 -38 13 0
-3 -10 1 -22 9 -12 9 -28 16 -35 16 -7 0 -42 14 -76 30 -35 17 -67 30 -70 30
-3 0 -69 27 -147 60 -166 70 -197 74 -235 28z m251 -233 c30 -14 56 -25 59
-25 3 0 229 -95 315 -133 19 -8 50 -21 68 -27 17 -7 32 -15 32 -19 0 -10 -88
-39 -139 -45 -43 -6 -179 17 -214 36 -10 5 -26 16 -35 23 -9 8 -31 25 -48 39
-36 30 -77 87 -99 139 -18 44 -13 46 61 12z"/>
<path d="M2660 1621 c-74 -32 -265 -113 -425 -180 -159 -67 -300 -132 -312
-143 -16 -15 -23 -33 -23 -61 0 -34 7 -46 53 -93 65 -66 199 -136 293 -154
120 -23 277 1 376 57 173 97 292 280 302 462 10 185 -43 207 -264 112z m60
-199 c0 -21 -45 -93 -87 -138 -96 -106 -285 -148 -418 -93 -16 7 -33 12 -37
11 -5 -1 -8 1 -8 5 0 7 524 231 543 232 4 1 7 -7 7 -17z"/>
<path d="M9533 2604 c-102 -50 -96 -207 9 -249 51 -20 96 -14 137 21 77 65 58
191 -35 230 -43 18 -71 17 -111 -2z"/>
<path d="M3800 1804 l0 -795 408 3 c374 3 411 5 452 22 75 32 167 103 209 162
60 83 76 140 76 264 0 94 -3 111 -28 164 -36 78 -85 137 -147 177 l-49 32 44
39 c56 49 102 142 114 228 30 226 -105 427 -324 485 -48 12 -127 15 -407 15
l-348 0 0 -796z m722 572 c84 -41 148 -137 148 -221 0 -91 -75 -199 -156 -223
-27 -8 -118 -12 -268 -12 l-226 0 0 233 c0 129 3 237 8 241 4 4 108 6 232 4
192 -3 230 -6 262 -22z m25 -669 c237 -62 245 -412 11 -482 -40 -12 -105 -15
-295 -15 l-243 0 0 255 0 255 238 0 c165 0 253 -4 289 -13z"/>
<path d="M8441 2458 c-80 -216 -504 -1354 -530 -1420 l-11 -28 118 0 118 0 63
175 64 175 354 -2 355 -3 62 -172 61 -173 119 0 c108 0 118 1 111 17 -9 24
-141 379 -290 778 -148 397 -281 753 -290 778 -6 15 -22 17 -129 17 l-123 0
-52 -142z m325 -542 c68 -187 122 -341 121 -343 -2 -2 -126 -2 -275 -1 l-271
3 135 369 c74 203 134 372 135 375 2 13 36 -77 155 -403z"/>
<path d="M6820 2432 l-85 -28 -3 -126 -3 -127 -112 -3 -112 -3 0 -95 0 -95
112 -3 112 -3 3 -367 c3 -359 4 -368 26 -417 30 -66 73 -108 136 -136 42 -19
74 -24 174 -27 67 -2 134 -1 148 2 24 6 25 8 22 94 l-3 87 -118 5 -119 5 -29
33 -29 32 0 335 c0 184 -1 338 -2 343 -2 4 65 9 147 12 l150 5 0 95 0 95 -150
5 -150 5 0 150 c0 126 -2 150 -15 152 -8 1 -53 -11 -100 -25z"/>
<path d="M5535 2156 c-123 -39 -249 -135 -321 -244 -21 -31 -51 -94 -67 -141
-25 -72 -29 -100 -29 -190 -1 -181 50 -308 172 -432 118 -120 235 -169 405
-169 153 0 253 38 349 130 34 33 65 60 67 60 2 0 4 -35 4 -77 l0 -78 103 -3
102 -3 0 571 0 570 -100 0 c-98 0 -100 0 -106 -25 -3 -14 -4 -53 -2 -85 2 -33
3 -60 1 -60 -2 0 -27 24 -56 53 -60 59 -135 103 -211 123 -64 17 -257 17 -311
0z m314 -202 c111 -33 227 -156 252 -268 6 -30 10 -92 7 -142 -4 -72 -10 -100
-33 -147 -36 -73 -112 -149 -184 -184 -51 -26 -66 -28 -171 -28 -107 0 -119 2
-175 29 -80 40 -149 111 -188 194 -29 61 -32 76 -32 168 0 96 2 103 38 176 90
184 281 263 486 202z"/>
<path d="M9497 2144 c-4 -4 -7 -261 -7 -571 l0 -563 105 0 105 0 -2 568 -3
567 -95 3 c-53 1 -99 0 -103 -4z"/>
</g>
</svg>
