<?xml version="1.0" encoding="UTF-8"?>
<svg version="1.1" xmlns="http://www.w3.org/2000/svg" width="1078" height="478">
<path d="M0 0 C355.74 0 711.48 0 1078 0 C1078 157.74 1078 315.48 1078 478 C722.26 478 366.52 478 0 478 C0 320.26 0 162.52 0 0 Z " fill="#FEFEFE" transform="translate(0,0)"/>
<path d="M0 0 C3.30530486 1.25916375 5.39500329 2.75813418 7.1328125 5.8125 C7.89819588 10.22776204 7.7891342 14.61500833 7.74081421 19.08596802 C7.74371117 20.46777728 7.74880234 21.8495834 7.75589812 23.23137748 C7.76902759 27.0292977 7.75094267 30.8265291 7.72779965 34.62437797 C7.70827309 38.7218025 7.71760039 42.81917319 7.72338867 46.91662598 C7.73021609 54.95229251 7.71050592 62.98768827 7.68222539 71.02329935 C7.65033697 80.40867445 7.64597174 89.79400211 7.64303346 99.17942356 C7.63696191 115.96326204 7.60782742 132.74698015 7.56494141 149.53076172 C7.52353921 165.74821198 7.49506142 181.9656061 7.48291016 198.18310547 C7.48216194 199.17758124 7.48141373 200.172057 7.48064284 201.1966684 C7.47766716 205.19636071 7.47472991 209.19605304 7.47185656 213.19574542 C7.45902454 230.59624481 7.43537834 247.99673214 7.4102183 265.39721745 C7.40625899 268.18897095 7.4025346 270.98072469 7.39886427 273.77247858 C7.38570228 283.59341609 7.36905925 293.41433201 7.34387986 303.23524679 C7.33348791 307.29015121 7.32431285 311.34504459 7.31930923 315.39995956 C7.30677872 324.79176461 7.25972744 334.18245208 7.15645784 343.57371932 C7.13151394 345.93544973 7.11101583 348.29719998 7.09034014 350.65897131 C7.05153793 354.74123101 6.98929823 358.82260062 6.91137083 362.90429364 C6.88455136 364.45766148 6.86431506 366.01115861 6.85105042 367.56470133 C6.83114148 369.71053927 6.78642832 371.85449154 6.73540688 373.99978447 C6.70582734 375.83267503 6.70582734 375.83267503 6.67565024 377.70259368 C6.03121231 381.39456541 5.03574502 382.52527348 2.1328125 384.8125 C-0.40307617 386.36132813 -0.40307617 386.36132813 -3.28515625 387.84375 C-4.89813599 388.6783374 -4.89813599 388.6783374 -6.54370117 389.52978516 C-7.70232666 390.11808105 -8.86095215 390.70637695 -10.0546875 391.3125 C-11.28179001 391.94163497 -12.50875723 392.57103388 -13.7355957 393.20068359 C-22.2597799 397.55917954 -30.86359152 401.73890078 -39.51416016 405.84082031 C-49.8881812 410.77714548 -60.15885975 415.91568892 -70.4296875 421.0625 C-71.27622894 421.48670227 -72.12277039 421.91090454 -72.9949646 422.34796143 C-79.32914932 425.52301334 -85.66199778 428.70073272 -91.99383545 431.88046265 C-112.74972989 442.30045965 -133.61266598 452.53494309 -154.6796875 462.3125 C-155.63810547 462.76278564 -156.59652344 463.21307129 -157.58398438 463.67700195 C-168.49211695 468.68451905 -168.49211695 468.68451905 -172.73466492 467.12684631 C-178.84820703 464.32709914 -184.87120599 461.36728802 -190.875 458.33984375 C-191.91751923 457.81669083 -192.96003845 457.2935379 -194.03414917 456.75453186 C-198.4457066 454.54069453 -202.85491594 452.32219983 -207.26416016 450.10375977 C-220.76661731 443.31395854 -234.3086001 436.63109491 -247.96435547 430.15454102 C-252.29442812 428.0964191 -256.58702325 425.97209814 -260.8671875 423.8125 C-262.06986502 423.2111815 -263.27282518 422.61042796 -264.47607422 422.01025391 C-270.94178263 418.78083398 -277.40398292 415.54471896 -283.85772705 412.29144287 C-287.08415455 410.66559341 -290.31226276 409.04309655 -293.54052734 407.42089844 C-295.17926314 406.5964717 -296.81728146 405.77061731 -298.45458984 404.94335938 C-308.46430909 399.88774457 -318.48707984 395.06553414 -328.8671875 390.8125 C-328.8671875 390.1525 -328.8671875 389.4925 -328.8671875 388.8125 C-329.5271875 388.750625 -330.1871875 388.68875 -330.8671875 388.625 C-336.59372873 387.07406175 -341.73749676 383.92945589 -344.8671875 378.8125 C-345.246687 375.94489783 -345.246687 375.94489783 -345.25309086 372.54581738 C-345.26760087 370.60183678 -345.26760087 370.60183678 -345.28240401 368.61858386 C-345.27799041 367.17705205 -345.27328724 365.73552111 -345.26832581 364.29399109 C-345.27392885 362.76522163 -345.28083044 361.23645648 -345.28892177 359.70769817 C-345.30731147 355.50021684 -345.30687088 351.29291402 -345.30333865 347.08540165 C-345.30272752 342.55016185 -345.31927437 338.01497985 -345.33351135 333.47976685 C-345.35845242 324.59185294 -345.36667685 315.70399872 -345.36834849 306.81605276 C-345.369773 299.59270523 -345.37593237 292.36937743 -345.38545036 285.14603615 C-345.41187635 264.67489533 -345.42570756 244.20380174 -345.42345894 223.73264375 C-345.42333907 222.62856906 -345.4232192 221.52449438 -345.4230957 220.38696289 C-345.42297306 219.28154299 -345.42285042 218.17612309 -345.42272406 217.03720561 C-345.42150457 199.12012953 -345.45021404 181.20324255 -345.4925108 163.28622117 C-345.53557953 144.89735543 -345.55632259 126.50858196 -345.55372947 108.11966449 C-345.55273275 97.79237404 -345.56100906 87.46528181 -345.59326363 77.13803673 C-345.62054922 68.34525788 -345.62712909 59.55276711 -345.60673536 50.75996431 C-345.5969242 46.27290219 -345.5968235 41.78639305 -345.6227951 37.29938316 C-345.64632779 33.19151503 -345.64216329 29.08464023 -345.61594271 24.97679696 C-345.61132357 23.49092933 -345.61684009 22.00498835 -345.63352294 20.5192072 C-345.76434588 8.0414862 -345.76434588 8.0414862 -341.97170925 3.4349947 C-340.07879555 1.60335248 -338.96200897 0.84625522 -336.453125 -0.046875 C-335.72351563 -0.01078125 -334.99390625 0.0253125 -334.2421875 0.0625 C-333.14003906 0.07023438 -333.14003906 0.07023438 -332.015625 0.078125 C-328.73604158 1.19914624 -327.74533021 2.91640394 -325.8671875 5.8125 C-324.47928107 8.72883182 -323.3532965 11.7188623 -322.2421875 14.75 C-321.90010254 15.66620117 -321.55801758 16.58240234 -321.20556641 17.52636719 C-317.70017406 27.0407789 -314.52499806 36.6651952 -311.35369873 46.29492188 C-308.27373991 55.64187023 -305.08965393 64.95131574 -301.8911438 74.25827026 C-296.81156354 89.04418225 -291.86028138 103.86266658 -287.08294678 118.7489624 C-282.53843337 132.90169951 -277.75467237 146.96676758 -272.87866211 161.00854492 C-272.60978683 161.78621216 -272.34091156 162.56387939 -272.06388855 163.3651123 C-271.55959543 164.82324131 -271.05273933 166.28048726 -270.54292297 167.73669434 C-268.8671875 172.58759756 -268.8671875 172.58759756 -268.8671875 174.8125 C-260.886884 170.89725293 -260.886884 170.89725293 -253.05859375 166.69140625 C-226.07362752 151.63010648 -197.51827281 145.59626469 -166.8046875 145.5625 C-165.71809845 145.56049088 -165.71809845 145.56049088 -164.60955811 145.55844116 C-153.12156204 145.56303421 -142.09759622 146.27622072 -130.8671875 148.8125 C-129.92875 149.01746094 -128.9903125 149.22242188 -128.0234375 149.43359375 C-125.26119975 150.11989048 -122.57919015 150.9472583 -119.8671875 151.8125 C-119.14901855 152.0285791 -118.43084961 152.2446582 -117.69091797 152.46728516 C-102.49160967 157.05158778 -86.18446841 162.45323417 -73.8671875 172.8125 C-71.187723 174.05266669 -71.187723 174.05266669 -68.8671875 174.8125 C-68.68638138 174.19327164 -68.50557526 173.57404327 -68.31929016 172.93605042 C-66.62946665 167.21656159 -64.78908465 161.58100869 -62.78515625 155.96484375 C-58.36382564 143.44540421 -54.09529609 130.87468603 -49.83255005 118.30051804 C-49.17012714 116.34680317 -48.50721019 114.39325641 -47.84423828 112.43972778 C-42.57592795 96.91126887 -37.37236002 81.36565244 -32.3671875 65.75 C-28.79238621 54.61533213 -25.12444041 43.51848801 -21.26928711 32.47732544 C-20.76326331 31.02695837 -20.25971655 29.57572394 -19.7590332 28.12350464 C-9.72516171 -0.91530934 -9.72516171 -0.91530934 0 0 Z " fill="#FEFEFE" transform="translate(361.8671875,6.1875)"/>
<path d="M0 0 C3.30530486 1.25916375 5.39500329 2.75813418 7.1328125 5.8125 C7.89819588 10.22776204 7.7891342 14.61500833 7.74081421 19.08596802 C7.74371117 20.46777728 7.74880234 21.8495834 7.75589812 23.23137748 C7.76902759 27.0292977 7.75094267 30.8265291 7.72779965 34.62437797 C7.70827309 38.7218025 7.71760039 42.81917319 7.72338867 46.91662598 C7.73021609 54.95229251 7.71050592 62.98768827 7.68222539 71.02329935 C7.65033697 80.40867445 7.64597174 89.79400211 7.64303346 99.17942356 C7.63696191 115.96326204 7.60782742 132.74698015 7.56494141 149.53076172 C7.52353921 165.74821198 7.49506142 181.9656061 7.48291016 198.18310547 C7.48216194 199.17758124 7.48141373 200.172057 7.48064284 201.1966684 C7.47766716 205.19636071 7.47472991 209.19605304 7.47185656 213.19574542 C7.45902454 230.59624481 7.43537834 247.99673214 7.4102183 265.39721745 C7.40625899 268.18897095 7.4025346 270.98072469 7.39886427 273.77247858 C7.38570228 283.59341609 7.36905925 293.41433201 7.34387986 303.23524679 C7.33348791 307.29015121 7.32431285 311.34504459 7.31930923 315.39995956 C7.30677872 324.79176461 7.25972744 334.18245208 7.15645784 343.57371932 C7.13151394 345.93544973 7.11101583 348.29719998 7.09034014 350.65897131 C7.05153793 354.74123101 6.98929823 358.82260062 6.91137083 362.90429364 C6.88455136 364.45766148 6.86431506 366.01115861 6.85105042 367.56470133 C6.83114148 369.71053927 6.78642832 371.85449154 6.73540688 373.99978447 C6.70582734 375.83267503 6.70582734 375.83267503 6.67565024 377.70259368 C6.03121231 381.39456541 5.03574502 382.52527348 2.1328125 384.8125 C-0.40307617 386.36132813 -0.40307617 386.36132813 -3.28515625 387.84375 C-4.89813599 388.6783374 -4.89813599 388.6783374 -6.54370117 389.52978516 C-7.70232666 390.11808105 -8.86095215 390.70637695 -10.0546875 391.3125 C-11.28179001 391.94163497 -12.50875723 392.57103388 -13.7355957 393.20068359 C-22.2597799 397.55917954 -30.86359152 401.73890078 -39.51416016 405.84082031 C-49.8881812 410.77714548 -60.15885975 415.91568892 -70.4296875 421.0625 C-71.27622894 421.48670227 -72.12277039 421.91090454 -72.9949646 422.34796143 C-79.32914932 425.52301334 -85.66199778 428.70073272 -91.99383545 431.88046265 C-112.74972989 442.30045965 -133.61266598 452.53494309 -154.6796875 462.3125 C-155.63810547 462.76278564 -156.59652344 463.21307129 -157.58398438 463.67700195 C-168.49211695 468.68451905 -168.49211695 468.68451905 -172.73466492 467.12684631 C-178.84820703 464.32709914 -184.87120599 461.36728802 -190.875 458.33984375 C-191.91751923 457.81669083 -192.96003845 457.2935379 -194.03414917 456.75453186 C-198.4457066 454.54069453 -202.85491594 452.32219983 -207.26416016 450.10375977 C-220.76661731 443.31395854 -234.3086001 436.63109491 -247.96435547 430.15454102 C-252.29442812 428.0964191 -256.58702325 425.97209814 -260.8671875 423.8125 C-262.06986502 423.2111815 -263.27282518 422.61042796 -264.47607422 422.01025391 C-270.94178263 418.78083398 -277.40398292 415.54471896 -283.85772705 412.29144287 C-287.08415455 410.66559341 -290.31226276 409.04309655 -293.54052734 407.42089844 C-295.17926314 406.5964717 -296.81728146 405.77061731 -298.45458984 404.94335938 C-308.46430909 399.88774457 -318.48707984 395.06553414 -328.8671875 390.8125 C-328.8671875 390.1525 -328.8671875 389.4925 -328.8671875 388.8125 C-329.5271875 388.750625 -330.1871875 388.68875 -330.8671875 388.625 C-336.59372873 387.07406175 -341.73749676 383.92945589 -344.8671875 378.8125 C-345.246687 375.94489783 -345.246687 375.94489783 -345.25309086 372.54581738 C-345.26760087 370.60183678 -345.26760087 370.60183678 -345.28240401 368.61858386 C-345.27799041 367.17705205 -345.27328724 365.73552111 -345.26832581 364.29399109 C-345.27392885 362.76522163 -345.28083044 361.23645648 -345.28892177 359.70769817 C-345.30731147 355.50021684 -345.30687088 351.29291402 -345.30333865 347.08540165 C-345.30272752 342.55016185 -345.31927437 338.01497985 -345.33351135 333.47976685 C-345.35845242 324.59185294 -345.36667685 315.70399872 -345.36834849 306.81605276 C-345.369773 299.59270523 -345.37593237 292.36937743 -345.38545036 285.14603615 C-345.41187635 264.67489533 -345.42570756 244.20380174 -345.42345894 223.73264375 C-345.42333907 222.62856906 -345.4232192 221.52449438 -345.4230957 220.38696289 C-345.42297306 219.28154299 -345.42285042 218.17612309 -345.42272406 217.03720561 C-345.42150457 199.12012953 -345.45021404 181.20324255 -345.4925108 163.28622117 C-345.53557953 144.89735543 -345.55632259 126.50858196 -345.55372947 108.11966449 C-345.55273275 97.79237404 -345.56100906 87.46528181 -345.59326363 77.13803673 C-345.62054922 68.34525788 -345.62712909 59.55276711 -345.60673536 50.75996431 C-345.5969242 46.27290219 -345.5968235 41.78639305 -345.6227951 37.29938316 C-345.64632779 33.19151503 -345.64216329 29.08464023 -345.61594271 24.97679696 C-345.61132357 23.49092933 -345.61684009 22.00498835 -345.63352294 20.5192072 C-345.76434588 8.0414862 -345.76434588 8.0414862 -341.97170925 3.4349947 C-340.07879555 1.60335248 -338.96200897 0.84625522 -336.453125 -0.046875 C-335.72351563 -0.01078125 -334.99390625 0.0253125 -334.2421875 0.0625 C-333.14003906 0.07023438 -333.14003906 0.07023438 -332.015625 0.078125 C-328.73604158 1.19914624 -327.74533021 2.91640394 -325.8671875 5.8125 C-324.47928107 8.72883182 -323.3532965 11.7188623 -322.2421875 14.75 C-321.90010254 15.66620117 -321.55801758 16.58240234 -321.20556641 17.52636719 C-317.70017406 27.0407789 -314.52499806 36.6651952 -311.35369873 46.29492188 C-308.27373991 55.64187023 -305.08965393 64.95131574 -301.8911438 74.25827026 C-296.81156354 89.04418225 -291.86028138 103.86266658 -287.08294678 118.7489624 C-282.53843337 132.90169951 -277.75467237 146.96676758 -272.87866211 161.00854492 C-272.60978683 161.78621216 -272.34091156 162.56387939 -272.06388855 163.3651123 C-271.55959543 164.82324131 -271.05273933 166.28048726 -270.54292297 167.73669434 C-268.8671875 172.58759756 -268.8671875 172.58759756 -268.8671875 174.8125 C-260.886884 170.89725293 -260.886884 170.89725293 -253.05859375 166.69140625 C-226.07362752 151.63010648 -197.51827281 145.59626469 -166.8046875 145.5625 C-165.71809845 145.56049088 -165.71809845 145.56049088 -164.60955811 145.55844116 C-153.12156204 145.56303421 -142.09759622 146.27622072 -130.8671875 148.8125 C-129.92875 149.01746094 -128.9903125 149.22242188 -128.0234375 149.43359375 C-125.26119975 150.11989048 -122.57919015 150.9472583 -119.8671875 151.8125 C-119.14901855 152.0285791 -118.43084961 152.2446582 -117.69091797 152.46728516 C-102.49160967 157.05158778 -86.18446841 162.45323417 -73.8671875 172.8125 C-71.187723 174.05266669 -71.187723 174.05266669 -68.8671875 174.8125 C-68.68638138 174.19327164 -68.50557526 173.57404327 -68.31929016 172.93605042 C-66.62946665 167.21656159 -64.78908465 161.58100869 -62.78515625 155.96484375 C-58.36382564 143.44540421 -54.09529609 130.87468603 -49.83255005 118.30051804 C-49.17012714 116.34680317 -48.50721019 114.39325641 -47.84423828 112.43972778 C-42.57592795 96.91126887 -37.37236002 81.36565244 -32.3671875 65.75 C-28.79238621 54.61533213 -25.12444041 43.51848801 -21.26928711 32.47732544 C-20.76326331 31.02695837 -20.25971655 29.57572394 -19.7590332 28.12350464 C-9.72516171 -0.91530934 -9.72516171 -0.91530934 0 0 Z M-13.8671875 75.8125 C-19.04126698 89.84053423 -23.96914824 103.93563111 -28.6796875 118.125 C-29.05578659 119.25761765 -29.05578659 119.25761765 -29.43948364 120.41311646 C-31.25302142 125.87815601 -33.06072426 131.3451186 -34.8671875 136.8125 C-46.5213274 172.08453118 -46.5213274 172.08453118 -51.9296875 187.375 C-52.28764404 188.40391357 -52.64560059 189.43282715 -53.0144043 190.49291992 C-53.34867432 191.42467041 -53.68294434 192.3564209 -54.02734375 193.31640625 C-54.31230713 194.11892822 -54.59727051 194.9214502 -54.89086914 195.74829102 C-55.93863639 197.96356285 -56.98854001 199.25320127 -58.8671875 200.8125 C-62.92685026 201.86409939 -66.58202839 201.49251137 -70.28125 199.53515625 C-71.79064326 198.50281203 -73.27532516 197.4329278 -74.7265625 196.3203125 C-77.01703549 194.70695014 -79.23931406 193.75890197 -81.8671875 192.8125 C-81.8671875 192.1525 -81.8671875 191.4925 -81.8671875 190.8125 C-93.7216525 183.74903367 -105.59786016 178.19348024 -118.61572266 173.61279297 C-120.47537531 172.95177135 -122.32010014 172.24891467 -124.16015625 171.53515625 C-158.30657578 158.77239013 -200.9690792 164.41181732 -233.28515625 179.09375 C-244.80553084 184.57983252 -255.86343558 191.01185272 -266.15234375 198.5703125 C-270.22236208 201.51852623 -274.02579045 200.88166282 -278.8671875 200.8125 C-281.59122333 195.55102627 -283.91859485 190.34520719 -285.8984375 184.765625 C-286.17080231 184.00959488 -286.44316711 183.25356476 -286.7237854 182.47462463 C-287.61069278 180.00593974 -288.48944796 177.5344581 -289.3671875 175.0625 C-289.6733197 174.20514252 -289.9794519 173.34778503 -290.29486084 172.46444702 C-296.22380527 155.85561198 -301.84386256 139.15150604 -307.35546875 122.40039062 C-309.78415056 115.02265169 -312.23693656 107.65291398 -314.69085693 100.28353882 C-315.47404169 97.92954039 -316.25499161 95.57480977 -317.03564453 93.2199707 C-317.51326462 91.78333871 -317.99096227 90.3467325 -318.46875 88.91015625 C-318.68277466 88.26290588 -318.89679932 87.61565552 -319.11730957 86.9487915 C-320.25980702 83.52095716 -321.48675855 80.15177428 -322.8671875 76.8125 C-323.1971875 76.8125 -323.5271875 76.8125 -323.8671875 76.8125 C-323.8671875 173.5025 -323.8671875 270.1925 -323.8671875 369.8125 C-311.55779582 376.39212197 -311.55779582 376.39212197 -299.0546875 382.5 C-287.56552103 387.91896305 -276.21923392 393.61354826 -264.8671875 399.3125 C-252.83041372 405.35356356 -240.78831106 411.36033687 -228.61303711 417.1184082 C-218.85328307 421.74193755 -209.21199372 426.59992509 -199.56591797 431.45507812 C-197.09632828 432.69724555 -194.62499492 433.93581535 -192.15234375 435.171875 C-191.09333862 435.70143799 -191.09333862 435.70143799 -190.01293945 436.24169922 C-188.69598942 436.89882181 -187.3781588 437.55418347 -186.05932617 438.20751953 C-183.3056245 439.57428287 -180.58002895 440.96961031 -177.8828125 442.4453125 C-177.01140625 442.91710937 -176.14 443.38890625 -175.2421875 443.875 C-174.52804688 444.27847656 -173.81390625 444.68195313 -173.078125 445.09765625 C-167.91100566 446.76829731 -163.2455717 444.22648772 -158.67616272 441.93081665 C-157.90517746 441.53341278 -157.1341922 441.13600891 -156.33984375 440.7265625 C-155.52265366 440.31377045 -154.70546356 439.90097839 -153.86351013 439.47567749 C-152.1186788 438.59336438 -150.37564601 437.70748701 -148.63427734 436.81835938 C-144.09609926 434.50134048 -139.545166 432.20959592 -134.99609375 429.9140625 C-134.10584503 429.46387756 -133.21559631 429.01369263 -132.29837036 428.54986572 C-125.69519133 425.21491127 -119.05738121 421.96988813 -112.3671875 418.8125 C-103.78712445 414.75641301 -95.29490571 410.54373893 -86.81738281 406.27783203 C-80.28730104 403.00015635 -73.72097831 399.81363929 -67.1171875 396.6875 C-51.55185546 389.311438 -36.18922455 381.51856035 -20.80064392 373.78259277 C-18.15755203 372.45644737 -15.51212173 371.13496712 -12.8671875 369.8125 C-12.8671875 272.7925 -12.8671875 175.7725 -12.8671875 75.8125 C-13.1971875 75.8125 -13.5271875 75.8125 -13.8671875 75.8125 Z " fill="#D9D9D9" transform="translate(361.8671875,6.1875)"/>
<path d="M0 0 C88.73043478 0 88.73043478 0 103 12 C103.63292969 12.51046875 104.26585937 13.0209375 104.91796875 13.546875 C112.05604298 19.91283965 118.13332711 30.3542517 119 40 C119.9497015 56.61977632 116.68124339 68.90581406 105.55078125 81.56640625 C104 83 104 83 102 83 C104.86167606 85.95110344 107.78422995 88.67367899 110.9375 91.3125 C114.97279299 94.8395888 118.12091651 98.48267746 121 103 C121.48855469 103.70769531 121.97710938 104.41539062 122.48046875 105.14453125 C128.24097422 115.13263458 127.98603027 130.12003316 125.078125 141.09765625 C122.77406833 147.49365772 119.53509238 152.94981071 115 158 C114.48824219 158.59167969 113.97648438 159.18335938 113.44921875 159.79296875 C108.69454656 164.9334616 103.02758002 168.50160363 97 172 C96.06220703 172.56267578 96.06220703 172.56267578 95.10546875 173.13671875 C65.76785891 185.16568308 31.70790649 175 0 175 C0 117.25 0 59.5 0 0 Z " fill="#D9D9D9" transform="translate(417,198)"/>
<path d="M0 0 C2.08127683 0.02684574 4.15716571 0.00010553 6.23828125 -0.03173828 C23.70530214 -0.07640898 35.71427079 8.13200293 48.08203125 19.65185547 C48.14261719 18.50845703 48.20320312 17.36505859 48.265625 16.18701172 C48.35001553 14.69611242 48.43466427 13.20522772 48.51953125 11.71435547 C48.55884766 10.95960938 48.59816406 10.20486328 48.63867188 9.42724609 C48.96875 3.76513672 48.96875 3.76513672 50.08203125 2.65185547 C57.01203125 2.65185547 63.94203125 2.65185547 71.08203125 2.65185547 C71.08203125 43.90185547 71.08203125 85.15185547 71.08203125 127.65185547 C63.82203125 127.65185547 56.56203125 127.65185547 49.08203125 127.65185547 C49.08203125 122.04185547 49.08203125 116.43185547 49.08203125 110.65185547 C47.47328125 111.99248047 45.86453125 113.33310547 44.20703125 114.71435547 C30.75803459 125.63844471 21.12799859 130.95663157 3.51953125 131.08935547 C2.46693115 131.0995874 1.41433105 131.10981934 0.32983398 131.12036133 C-17.90866488 130.91671447 -31.4171349 123.31598033 -43.91796875 110.65185547 C-44.95630859 109.61158203 -44.95630859 109.61158203 -46.015625 108.55029297 C-59.15479185 94.51593013 -61.96528057 76.68307924 -61.36328125 58.15966797 C-60.36306428 41.84886715 -51.78082904 26.65483388 -39.91796875 15.65185547 C-37.70562224 13.79658223 -35.43198945 12.04877976 -33.10546875 10.33935547 C-32.5736499 9.94280762 -32.04183105 9.54625977 -31.49389648 9.13769531 C-21.63536159 2.23047855 -11.93675578 -0.1826481 0 0 Z " fill="#D9D9D9" transform="translate(622.91796875,245.34814453125)"/>
<path d="M0 0 C1.20205078 -0.04576172 2.40410156 -0.09152344 3.64257812 -0.13867188 C4.79822266 -0.15349609 5.95386719 -0.16832031 7.14453125 -0.18359375 C8.20647705 -0.2086499 9.26842285 -0.23370605 10.36254883 -0.25952148 C13.1875 0.4375 13.1875 0.4375 15.34179688 2.89086914 C17.53267386 7.10077257 19.18936352 11.33332536 20.76171875 15.8046875 C21.08690491 16.70810883 21.41209106 17.61153015 21.74713135 18.54232788 C22.79697041 21.46318799 23.83585863 24.38781914 24.875 27.3125 C25.95810432 30.33179715 27.04411176 33.35004048 28.13014221 36.36828613 C28.84288164 38.34995695 29.55467059 40.33196989 30.26548767 42.31433105 C32.82859578 49.4607164 35.44200221 56.58512012 38.125 63.6875 C38.64719116 65.07171143 38.64719116 65.07171143 39.17993164 66.48388672 C39.85314491 68.26621365 40.52703028 70.04828691 41.20166016 71.83007812 C42.91519513 76.3621617 44.61280844 80.90021076 46.3125 85.4375 C49.39328471 93.65591985 52.47729991 101.87312287 55.56277466 110.08978271 C57.16430901 114.35554938 58.76442072 118.62184182 60.36181641 122.88916016 C60.84015427 124.16699371 60.84015427 124.16699371 61.32815552 125.47064209 C61.9747532 127.19803952 62.62129848 128.92545656 63.26779175 130.65289307 C65.20932724 135.83718582 67.16128733 141.01740671 69.12176514 146.19456482 C70.35602774 149.45727881 71.58431008 152.72222348 72.81140137 155.98764038 C73.39306481 157.5311719 73.97743532 159.07368614 74.5645752 160.61514282 C75.37292954 162.73827674 76.17191751 164.86470789 76.96875 166.9921875 C77.42314453 168.19343262 77.87753906 169.39467773 78.34570312 170.63232422 C79.1875 173.4375 79.1875 173.4375 78.1875 175.4375 C69.9375 175.4375 61.6875 175.4375 53.1875 175.4375 C51.33314398 170.34820972 49.48073223 165.25829954 47.63330078 160.16650391 C47.00391577 158.43366433 46.37338584 156.70124016 45.74169922 154.96923828 C44.8352179 152.48317413 43.93283134 149.99565716 43.03125 147.5078125 C42.74689087 146.73067902 42.46253174 145.95354553 42.16955566 145.15286255 C40.1875 139.66524341 40.1875 139.66524341 40.1875 137.4375 C14.1175 137.4375 -11.9525 137.4375 -38.8125 137.4375 C-39.8025 140.7375 -40.7925 144.0375 -41.8125 147.4375 C-42.61887502 149.81173085 -43.4440433 152.17971124 -44.29296875 154.5390625 C-44.73447266 155.77011719 -45.17597656 157.00117188 -45.63085938 158.26953125 C-46.0871823 159.53387484 -46.54356318 160.79819752 -47 162.0625 C-47.46833781 163.36579961 -47.93643837 164.6691845 -48.40429688 165.97265625 C-49.53804133 169.12843978 -50.67494782 172.28308702 -51.8125 175.4375 C-60.3925 175.4375 -68.9725 175.4375 -77.8125 175.4375 C-75.84416573 168.87638576 -73.82050245 162.48503978 -71.43359375 156.0859375 C-71.1096312 155.21003967 -70.78566864 154.33414185 -70.45188904 153.43170166 C-69.38773795 150.55745729 -68.31899493 147.684946 -67.25 144.8125 C-66.49283828 142.77138208 -65.73584285 140.73020247 -64.97900391 138.68896484 C-56.30707973 115.32037545 -47.53810624 91.98800049 -38.76702881 68.65649414 C-36.78300454 63.37880805 -34.79954753 58.1009099 -32.81750488 52.82247925 C-32.19437156 51.16301654 -31.5710832 49.50361205 -30.94763184 47.8442688 C-27.75684878 39.34933659 -24.58506689 30.84821636 -21.47265625 22.32421875 C-21.21160599 21.6095343 -20.95055573 20.89484985 -20.68159485 20.1585083 C-19.46519581 16.82536516 -18.25296305 13.49078471 -17.04711914 10.15380859 C-16.63196045 9.01121582 -16.21680176 7.86862305 -15.7890625 6.69140625 C-15.24886475 5.19589233 -15.24886475 5.19589233 -14.69775391 3.67016602 C-12.50085873 -1.87054176 -5.17066618 0.0796332 0 0 Z " fill="#D9D9D9" transform="translate(946.8125,197.5625)"/>
<path d="M0 0 C8.38503484 6.51229651 15.61818316 15.55147025 17.1875 26.3125 C18.11458865 42.90822199 16.56972891 55.39377128 5.1875 68.3125 C3.10435246 69.97629497 1.06845394 71.50457902 -1.125 73 C-1.66833984 73.38994141 -2.21167969 73.77988281 -2.77148438 74.18164062 C-12.8322175 81.13031699 -26.06022098 80.68902377 -37.8125 79.3125 C-49.38301456 76.52668561 -58.1109444 67.92982262 -64.25 58.125 C-70.2266765 47.85737626 -70.38104658 35.89147897 -68.8125 24.3125 C-67.18888215 18.67190605 -64.21494658 14.03984808 -60.8125 9.3125 C-60.32394531 8.5803125 -59.83539062 7.848125 -59.33203125 7.09375 C-45.49149169 -11.41442021 -17.87678845 -12.16884649 0 0 Z " fill="#FEFEFE" transform="translate(653.8125,274.6875)"/>
<path d="M0 0 C3.710642 1.0649006 7.16750265 2.54981995 10.6875 4.125 C12.6286786 4.95756224 14.57008555 5.78959226 16.51171875 6.62109375 C17.44935059 7.02956543 18.38698242 7.43803711 19.35302734 7.85888672 C22.87366122 9.37663646 26.43063237 10.78933414 30 12.1875 C35.90797556 14.53770566 41.74424811 17.03102039 47.578125 19.55859375 C50.9845221 20.9934802 54.41624763 22.32199075 57.875 23.625 C62.02238297 25.19400994 65.93161221 26.91344186 69.8515625 28.97265625 C72.63335404 30.30285839 75.48731696 31.35714306 78.375 32.4375 C94.74306319 38.64213791 94.74306319 38.64213791 98 44 C98.69402658 48.16415951 98.95775991 50.49131625 96.67578125 54.0859375 C94.88345281 56.18839918 93.00395815 58.09901203 91 60 C90.47148437 60.53625 89.94296875 61.0725 89.3984375 61.625 C76.59745338 73.73233473 59.29956221 76.44547611 42.453125 76.21875 C36.97352146 76.03440674 32.13162242 74.90696655 27 73 C26.14019531 72.70996094 25.28039062 72.41992188 24.39453125 72.12109375 C10.47481715 67.08809576 -1.63819046 55.0770416 -8.6015625 42.15234375 C-13.28407424 31.59707287 -18.39450154 15.33487923 -14.234375 3.89453125 C-10.70819968 -1.33265118 -5.58624701 -0.67058493 0 0 Z " fill="#D9D9D9" transform="translate(80,300)"/>
<path d="M0 0 C0 10.89 0 21.78 0 33 C5.28 33 10.56 33 16 33 C19.18060139 33.13174089 22.32915577 33.27685631 25.5 33.5 C27.975 33.665 30.45 33.83 33 34 C33 40.93 33 47.86 33 55 C30.31875 55.165 27.6375 55.33 24.875 55.5 C23.65659424 55.57831055 23.65659424 55.57831055 22.41357422 55.65820312 C17.49419893 55.94523313 12.59649063 56.02377548 7.66845703 56.01367188 C6.41694855 56.011698 5.16544006 56.00972412 3.87600708 56.00769043 C2.92692474 56.00515259 1.97784241 56.00261475 1 56 C1.01488422 65.80580502 1.0565195 75.61109942 1.13209057 85.41663551 C1.16634766 89.97004376 1.19146853 94.52311695 1.19555664 99.07666016 C1.19984239 103.47307197 1.22832744 107.86872814 1.27343178 112.26490402 C1.28639805 113.94013438 1.29071752 115.6154552 1.28615379 117.29072952 C1.28124123 119.64207283 1.30736452 121.9912131 1.34057617 124.34228516 C1.32763771 125.37591187 1.32763771 125.37591187 1.31443787 126.43041992 C1.44483199 131.95516229 3.17969347 134.28628923 7 138 C9.94955847 138.88826845 9.94955847 138.88826845 13.140625 138.76953125 C14.29304687 138.79080078 15.44546875 138.81207031 16.6328125 138.83398438 C17.82648438 138.82689453 19.02015625 138.81980469 20.25 138.8125 C22.63024332 138.83660694 25.0104583 138.86377629 27.390625 138.89453125 C28.9689209 138.89223511 28.9689209 138.89223511 30.57910156 138.88989258 C33 139 33 139 34 140 C34.12667764 142.99018161 34.18520838 145.94694108 34.1875 148.9375 C34.19974609 149.77474609 34.21199219 150.61199219 34.22460938 151.47460938 C34.22654297 152.27576172 34.22847656 153.07691406 34.23046875 153.90234375 C34.23457764 154.63960693 34.23868652 155.37687012 34.24291992 156.13647461 C34 158 34 158 32 160 C29.9597168 160.25878906 29.9597168 160.25878906 27.44921875 160.265625 C26.52915039 160.26997559 25.60908203 160.27432617 24.66113281 160.27880859 C23.67983398 160.26930176 22.69853516 160.25979492 21.6875 160.25 C20.19041504 160.23767334 20.19041504 160.23767334 18.66308594 160.22509766 C7.12854405 160.05112549 -3.78870011 159.87000534 -13 152 C-19.72003827 144.41809809 -22.32918849 137.08882052 -22.22705078 126.95336914 C-22.22734283 126.18181488 -22.22763489 125.41026062 -22.22793579 124.61532593 C-22.22655271 122.08848459 -22.21104018 119.56194549 -22.1953125 117.03515625 C-22.19157873 115.27396302 -22.18873348 113.51276771 -22.18673706 111.75157166 C-22.17912927 107.13363838 -22.15950549 102.51583245 -22.1373291 97.89794922 C-22.11680898 93.17872846 -22.10772219 88.45948696 -22.09765625 83.74023438 C-22.07625672 74.49342485 -22.04109804 65.24674298 -22 56 C-30.25 55.67 -38.5 55.34 -47 55 C-47 48.07 -47 41.14 -47 34 C-38.75 34 -30.5 34 -22 34 C-22 24.43 -22 14.86 -22 5 C-18.225625 3.7625 -18.225625 3.7625 -14.375 2.5 C-13.59431152 2.23896484 -12.81362305 1.97792969 -12.00927734 1.70898438 C-11.3745752 1.50595703 -10.73987305 1.30292969 -10.0859375 1.09375 C-9.4470459 0.88427734 -8.8081543 0.67480469 -8.14990234 0.45898438 C-6 0 -6 0 0 0 Z " fill="#D9D9D9" transform="translate(762,214)"/>
<path d="M0 0 C2.50160818 1.87620613 3.61945652 3.23891303 5 6 C6.48839565 25.43419463 1.9165959 40.54982879 -10.75488281 55.62597656 C-21.37821193 67.73339158 -35.79704439 74.97368749 -51.94946289 76.14086914 C-71.19605126 77.02650964 -87.07929598 71.47210632 -101.96484375 58.91015625 C-105.54395704 55.55087334 -107.68519828 52.92816055 -108.5 47.9375 C-107.86520253 44.20806488 -106.56855916 42.75629886 -104 40 C-101.328125 38.42944336 -101.328125 38.42944336 -98.25 37.08984375 C-97.09927002 36.58138916 -95.94854004 36.07293457 -94.76293945 35.54907227 C-93.50879514 35.01148746 -92.25447702 34.47430796 -91 33.9375 C-89.68988573 33.36556038 -88.38024127 32.79254353 -87.07104492 32.21850586 C-83.70158961 30.74536476 -80.32509209 29.28917663 -76.94622803 27.83776855 C-73.97715938 26.55971053 -71.0144376 25.26711137 -68.05078125 23.9765625 C-54.9244244 18.28505621 -41.7217598 12.77781195 -28.5 7.3125 C-27.75086334 7.00200714 -27.00172668 6.69151428 -26.22988892 6.37161255 C-24.10242955 5.49075747 -21.97338438 4.61386261 -19.84375 3.73828125 C-19.20962692 3.47533264 -18.57550385 3.21238403 -17.92216492 2.94146729 C-11.92573411 0.48701443 -6.50384936 -0.89667041 0 0 Z " fill="#D9D9D9" transform="translate(315,300)"/>
<path d="M0 0 C12.5915625 -0.061875 12.5915625 -0.061875 25.4375 -0.125 C28.07032959 -0.14320801 30.70315918 -0.16141602 33.41577148 -0.18017578 C35.52587684 -0.18602248 37.63598447 -0.19111762 39.74609375 -0.1953125 C41.36118835 -0.2106604 41.36118835 -0.2106604 43.00891113 -0.22631836 C53.82761805 -0.22879772 62.29397037 1.09016055 70.6875 8.3125 C76.57147259 15.15063031 78.32466245 21.47835446 78.21875 30.375 C77.67286462 36.92562456 75.23863431 42.98056464 71 48 C61.78285013 55.46320679 53.83215813 56.29789508 42.28515625 56.1953125 C41.21100464 56.19329834 40.13685303 56.19128418 39.03015137 56.18920898 C35.04089043 56.17879279 31.05169065 56.15087039 27.0625 56.125 C13.6665625 56.063125 13.6665625 56.063125 0 56 C0 37.52 0 19.04 0 0 Z " fill="#FEFEFE" transform="translate(441,295)"/>
<path d="M0 0 C0.95149429 -0.0033284 1.90298859 -0.0066568 2.88331604 -0.01008606 C4.90682491 -0.01516347 6.93034219 -0.01749414 8.95385742 -0.01733398 C12.02211807 -0.01949999 15.09000716 -0.03758965 18.15820312 -0.05664062 C20.12630086 -0.05957864 22.0944003 -0.0615607 24.0625 -0.0625 C25.42404457 -0.07327827 25.42404457 -0.07327827 26.81309509 -0.08427429 C36.82925995 -0.04913349 45.23663902 0.93433387 52.62890625 8.16796875 C58.80357559 15.30314221 61.10567102 20.31064141 60.9453125 29.8359375 C60.09527095 38.78760965 55.64817655 43.80299826 48.94140625 49.41796875 C42.10902716 54.58841779 32.02170064 53.31107355 23.80859375 53.265625 C22.8239212 53.26421005 21.83924866 53.2627951 20.82473755 53.26133728 C17.71776125 53.2557949 14.61086032 53.24325358 11.50390625 53.23046875 C9.38151147 53.22544629 7.25911554 53.2208847 5.13671875 53.21679688 C-0.03258058 53.20584442 -5.20182444 53.18862041 -10.37109375 53.16796875 C-10.39636067 45.78068773 -10.41392535 38.39341777 -10.42602539 31.00610352 C-10.43106738 28.4907998 -10.43790078 25.97549903 -10.4465332 23.46020508 C-10.45860469 19.853671 -10.46432324 16.24717552 -10.46875 12.640625 C-10.47391129 11.50834976 -10.47907257 10.37607452 -10.48439026 9.20948792 C-10.48446579 8.16848434 -10.48454132 7.12748077 -10.48461914 6.05493164 C-10.48683975 5.13337784 -10.48906036 4.21182404 -10.49134827 3.26234436 C-10.1942268 -1.91237985 -3.94756388 0.00474444 0 0 Z " fill="#FEFEFE" transform="translate(451.37109375,219.83203125)"/>
<path d="M0 0 C7.59 0 15.18 0 23 0 C23 41.25 23 82.5 23 125 C15.41 125 7.82 125 0 125 C0 83.75 0 42.5 0 0 Z " fill="#D9D9D9" transform="translate(1044,248)"/>
<path d="M0 0 C1.83392041 2.75088061 2.8966233 5.06962782 4.06640625 8.13671875 C4.46480713 9.17634766 4.86320801 10.21597656 5.27368164 11.28710938 C5.6989917 12.40923828 6.12430176 13.53136719 6.5625 14.6875 C7.00650146 15.85216797 7.45050293 17.01683594 7.90795898 18.21679688 C8.82859659 20.63516866 9.74727696 23.05428639 10.6640625 25.47412109 C11.88608309 28.69934429 13.11435774 31.92211309 14.34375 35.14453125 C18.39782716 45.81566892 22.2984593 56.53551993 26.0625 67.3125 C26.45703369 68.43462891 26.85156738 69.55675781 27.25805664 70.71289062 C27.61762451 71.75251953 27.97719238 72.79214844 28.34765625 73.86328125 C28.66742432 74.78407471 28.98719238 75.70486816 29.31665039 76.65356445 C30 79 30 79 30 82 C10.2 82 -9.6 82 -30 82 C-21.85119652 58.71770435 -21.85119652 58.71770435 -18.5546875 49.53125 C-18.17692169 48.47820679 -17.79915588 47.42516357 -17.40994263 46.34020996 C-16.62582862 44.15599526 -15.84123454 41.97195283 -15.05615234 39.78808594 C-14.26375098 37.58220302 -13.47275231 35.37581577 -12.68310547 33.16894531 C-11.51830166 29.91362771 -10.34944391 26.65979076 -9.1796875 23.40625 C-8.83372528 22.43723755 -8.48776306 21.4682251 -8.13131714 20.46984863 C-5.63649912 13.55200264 -2.88040609 6.76591376 0 0 Z " fill="#FEFEFE" transform="translate(947,229)"/>
<path d="M0 0 C-0.84542086 5.72671985 -3.66918605 9.39563954 -7 14 C-7.7425 15.051875 -8.485 16.10375 -9.25 17.1875 C-17.74905549 25.87971585 -29.50351239 30.13238547 -41.5 30.5 C-48.53834374 30.3256757 -54.53015713 28.69877989 -61 26 C-58.79147502 23.54443448 -56.79358936 22.26952538 -53.765625 20.9765625 C-52.89591064 20.60128418 -52.02619629 20.22600586 -51.13012695 19.83935547 C-49.70446411 19.23824951 -49.70446411 19.23824951 -48.25 18.625 C-47.2602417 18.20234863 -46.2704834 17.77969727 -45.25073242 17.34423828 C-43.05519952 16.40893287 -40.85808421 15.47733606 -38.65966797 14.54882812 C-35.38403488 13.1625295 -32.11369062 11.76473412 -28.84494019 10.36233521 C-26.03122968 9.15691011 -23.21455226 7.95853927 -20.39709473 6.76190186 C-19.01051542 6.17197436 -17.62484707 5.57990102 -16.2401123 4.98565674 C-14.28406378 4.14747624 -12.32427378 3.31872246 -10.36328125 2.4921875 C-9.23188721 2.01120605 -8.10049316 1.53022461 -6.93481445 1.03466797 C-4 0 -4 0 0 0 Z " fill="#FDFDFD" transform="translate(298,326)"/>
<path d="M0 0 C7.7109985 2.08955629 14.92833424 4.94859987 22.25 8.125 C24.53337302 9.10398756 26.8172369 10.08183096 29.1015625 11.05859375 C30.2452832 11.54827637 31.38900391 12.03795898 32.56738281 12.54248047 C37.89987439 14.80670342 43.25978742 17.00216598 48.625 19.1875 C49.5727832 19.57373535 50.52056641 19.9599707 51.49707031 20.35791016 C53.66417346 21.23994633 55.83175443 22.12077675 58 23 C58 24.32 58 25.64 58 27 C44.61944035 30.98569862 33.13162785 31.33423353 20 26 C11.04768805 20.72009631 4.15870364 12.49509328 0 3 C0 2.01 0 1.02 0 0 Z " fill="#FEFEFE" transform="translate(88,326)"/>
<path d="M0 0 C4.14374812 2.29314216 6.33723536 4.938401 7.8125 9.4375 C8.66653429 15.41574003 7.69690859 18.81239144 4.22265625 23.73828125 C1.71356811 26.7616977 -0.33942339 28.16203198 -4.2578125 28.74609375 C-10.06494972 29.07089973 -13.52494527 27.8877905 -18.1875 24.4375 C-21.54779959 19.80916283 -21.86363936 16.06164012 -21.74609375 10.4609375 C-20.83638753 5.53707309 -18.06814633 2.47055334 -14.1875 -0.5625 C-9.13945496 -2.24518168 -4.86666054 -2.12462419 0 0 Z " fill="#D9D9D9" transform="translate(1062.1875,197.5625)"/>
</svg>
