<?xml version="1.0"?>
<svg width="980" height="444" xmlns="http://www.w3.org/2000/svg" xmlns:svg="http://www.w3.org/2000/svg" preserveAspectRatio="xMidYMid meet" version="1.0">
 <g class="layer">
  <title>Layer 1</title>
  <g fill="#000000" id="svg_1" transform="translate(0.000000,444.000000) scale(0.100000,-0.100000)">
   <path d="m211,4319c-12,-11 -26,-32 -32,-46c-15,-39 -11,-3353 4,-3380c12,-22 67,-69 67,-58c0,3 13,-3 29,-14c15,-11 31,-18 35,-14c3,3 6,1 6,-5c0,-7 6,-12 14,-12c8,0 140,-63 295,-140c154,-77 284,-140 290,-140c5,0 11,-5 13,-11c2,-5 10,-11 18,-13c8,-1 155,-71 326,-156c171,-85 331,-164 355,-174c24,-11 47,-23 50,-28c3,-5 15,-10 27,-13c12,-2 29,-8 38,-13c32,-18 -12,-38 779,353c319,158 630,311 690,341c61,30 119,61 130,70c20,15 20,28 23,1707c1,1195 -1,1700 -9,1718c-11,29 -46,49 -85,49c-61,0 -65,-11 -318,-770c-302,-904 -271,-822 -304,-809c-15,6 -29,13 -32,17c-13,18 -187,107 -256,132c-114,41 -140,49 -219,69c-123,30 -227,42 -381,42c-295,-1 -583,-83 -837,-239c-31,-19 -59,-33 -61,-31c-2,2 -74,216 -160,474c-291,876 -362,1078 -386,1097c-30,24 -81,23 -109,-3zm2979,-1990l0,-1341l-517,-255c-285,-140 -605,-297 -711,-349l-193,-93l-57,28c-31,16 -79,39 -107,52c-27,12 -53,27 -57,33c-4,6 -8,7 -8,3c0,-5 -13,1 -29,12c-16,12 -33,21 -37,21c-5,0 -135,62 -289,139c-154,76 -403,199 -552,272l-273,134l1,1340l0,1340l190,-560c117,-346 197,-567 209,-580c36,-35 87,-26 159,28c91,70 221,142 336,186c270,105 510,125 815,68c129,-25 354,-114 436,-174c17,-13 36,-23 42,-23c7,0 12,-4 12,-10c0,-5 5,-10 11,-10c6,0 29,-16 51,-35c76,-65 151,-67 182,-6c7,14 95,272 196,574c100,301 184,547 186,547c2,0 4,-603 4,-1341z" fill="#ffffff" id="svg_2" stroke="#ff0000" stroke-width="0"/>
   <path d="m635,1648c-27,-32 -27,-35 -22,-123c11,-161 61,-272 173,-382c41,-40 80,-73 88,-73c8,0 16,-5 18,-11c2,-5 10,-11 18,-13c8,-2 37,-13 63,-25c177,-82 444,-34 593,106c61,57 77,87 70,127c-8,43 -26,58 -106,91c-36,14 -78,32 -95,40c-16,7 -55,23 -85,35c-30,12 -72,31 -92,42c-21,10 -38,16 -38,13c0,-3 -10,1 -22,9c-12,9 -28,16 -35,16c-7,0 -42,14 -76,30c-35,17 -67,30 -70,30c-3,0 -69,27 -147,60c-166,70 -197,74 -235,28zm251,-233c30,-14 56,-25 59,-25c3,0 229,-95 315,-133c19,-8 50,-21 68,-27c17,-7 32,-15 32,-19c0,-10 -88,-39 -139,-45c-43,-6 -179,17 -214,36c-10,5 -26,16 -35,23c-9,8 -31,25 -48,39c-36,30 -77,87 -99,139c-18,44 -13,46 61,12z" fill="#ffffff" id="svg_3" stroke="#ff0000" stroke-width="0"/>
   <path d="m2660,1621c-74,-32 -265,-113 -425,-180c-159,-67 -300,-132 -312,-143c-16,-15 -23,-33 -23,-61c0,-34 7,-46 53,-93c65,-66 199,-136 293,-154c120,-23 277,1 376,57c173,97 292,280 302,462c10,185 -43,207 -264,112zm60,-199c0,-21 -45,-93 -87,-138c-96,-106 -285,-148 -418,-93c-16,7 -33,12 -37,11c-5,-1 -8,1 -8,5c0,7 524,231 543,232c4,1 7,-7 7,-17z" fill="#ffffff" id="svg_4" stroke="#ff0000" stroke-width="0"/>
   <path d="m9533,2604c-102,-50 -96,-207 9,-249c51,-20 96,-14 137,21c77,65 58,191 -35,230c-43,18 -71,17 -111,-2z" fill="#ffffff" id="svg_5" stroke="#ff0000" stroke-width="0"/>
   <path d="m3800,1804l0,-795l408,3c374,3 411,5 452,22c75,32 167,103 209,162c60,83 76,140 76,264c0,94 -3,111 -28,164c-36,78 -85,137 -147,177l-49,32l44,39c56,49 102,142 114,228c30,226 -105,427 -324,485c-48,12 -127,15 -407,15l-348,0l0,-796zm722,572c84,-41 148,-137 148,-221c0,-91 -75,-199 -156,-223c-27,-8 -118,-12 -268,-12l-226,0l0,233c0,129 3,237 8,241c4,4 108,6 232,4c192,-3 230,-6 262,-22zm25,-669c237,-62 245,-412 11,-482c-40,-12 -105,-15 -295,-15l-243,0l0,255l0,255l238,0c165,0 253,-4 289,-13z" fill="#ffffff" id="svg_6" stroke="#ff0000" stroke-width="0"/>
   <path d="m8441,2458c-80,-216 -504,-1354 -530,-1420l-11,-28l118,0l118,0l63,175l64,175l354,-2l355,-3l62,-172l61,-173l119,0c108,0 118,1 111,17c-9,24 -141,379 -290,778c-148,397 -281,753 -290,778c-6,15 -22,17 -129,17l-123,0l-52,-142zm325,-542c68,-187 122,-341 121,-343c-2,-2 -126,-2 -275,-1l-271,3l135,369c74,203 134,372 135,375c2,13 36,-77 155,-403z" fill="#ffffff" id="svg_7" stroke="#ff0000" stroke-width="0"/>
   <path d="m6820,2432l-85,-28l-3,-126l-3,-127l-112,-3l-112,-3l0,-95l0,-95l112,-3l112,-3l3,-367c3,-359 4,-368 26,-417c30,-66 73,-108 136,-136c42,-19 74,-24 174,-27c67,-2 134,-1 148,2c24,6 25,8 22,94l-3,87l-118,5l-119,5l-29,33l-29,32l0,335c0,184 -1,338 -2,343c-2,4 65,9 147,12l150,5l0,95l0,95l-150,5l-150,5l0,150c0,126 -2,150 -15,152c-8,1 -53,-11 -100,-25z" fill="#ffffff" id="svg_8" stroke="#ff0000" stroke-width="0"/>
   <path d="m5535,2156c-123,-39 -249,-135 -321,-244c-21,-31 -51,-94 -67,-141c-25,-72 -29,-100 -29,-190c-1,-181 50,-308 172,-432c118,-120 235,-169 405,-169c153,0 253,38 349,130c34,33 65,60 67,60c2,0 4,-35 4,-77l0,-78l103,-3l102,-3l0,571l0,570l-100,0c-98,0 -100,0 -106,-25c-3,-14 -4,-53 -2,-85c2,-33 3,-60 1,-60c-2,0 -27,24 -56,53c-60,59 -135,103 -211,123c-64,17 -257,17 -311,0zm314,-202c111,-33 227,-156 252,-268c6,-30 10,-92 7,-142c-4,-72 -10,-100 -33,-147c-36,-73 -112,-149 -184,-184c-51,-26 -66,-28 -171,-28c-107,0 -119,2 -175,29c-80,40 -149,111 -188,194c-29,61 -32,76 -32,168c0,96 2,103 38,176c90,184 281,263 486,202z" fill="#ffffff" id="svg_9" stroke="#ff0000" stroke-width="0"/>
   <path d="m9497,2144c-4,-4 -7,-261 -7,-571l0,-563l105,0l105,0l-2,568l-3,567l-95,3c-53,1 -99,0 -103,-4z" fill="#ffffff" id="svg_10" stroke="#ff0000" stroke-width="0"/>
  </g>
 </g>
</svg>